# xmcd
#
# Track frame offsets: 
#        150
#        33465
#        50303
#        69085
#        100439
#        120633
#        133335
#        153487
#        170655
#        183025
#        203218
#        230738
#
# Disc length: 3394 seconds
#
# Revision: 0
# Processed by: cddbd v1.5.2PL0 Copyright (c) Steve Scherf et al.
# Submitted via: ExactAudioCopy v0.95b4
#
DISCID=a60d400c
DTITLE=Der Scheitel - Der Scheitel
DYEAR=1900
DGENRE=
TTITLE0=My Amigo
TTITLE1=I'm Gonna Love You Like There's No Tomorrow
TTITLE2=La Passionaria
TTITLE3=Death Is Not The End
TTITLE4=This Is The Day
TTITLE5=Who Where You Thinkin' Of
TTITLE6=Love Hurts
TTITLE7=Can I Take My Gun Up To Heaven
TTITLE8=The Girl On Death Row
TTITLE9=When It Rains In Texas
TTITLE10=Things Can Only Get Better
TTITLE11=As Long As I Can See The Light
EXTD=
EXTT0=
EXTT1=
EXTT2=
EXTT3=
EXTT4=
EXTT5=
EXTT6=
EXTT7=
EXTT8=
EXTT9=
EXTT10=
EXTT11=
PLAYORDER=
